{"title":"The Calling 2014 HDRip XviD titler","uid":10684531,"size":1286571765,"categoryP":"video","categoryS":"movies","magnet":"?xt=urn:btih:d99bb900dd8c6157470abc38e31b491d88c022e5&amp;dn=The+Calling+2014+HDRip+XviD+titler&amp;tr=udp%3A%2F%2Ftracker.openbittorrent.com%3A80&amp;tr=udp%3A%2F%2Fopen.demonii.com%3A1337&amp;tr=udp%3A%2F%2Ftracker.coppersurfer.tk%3A6969&amp;tr=udp%3A%2F%2Fexodus.desync.com%3A6969","seeders":1,"leechers":0,"uploader":"movieZ.freak","files":4,"time":1407063211,"description":"SOURCE: The Calling 2014 720p WEB-DL x264 - ETRG\n\n\n\n\n &lt;a href=&quot;\nhttp://www.imdb.com/title/tt1666335/&quot; rel=&quot;nofollow&quot; target=&quot;_NEW&quot;&gt;\nhttp://www.imdb.com/title/tt1666335/&lt;/a&gt;\n\n\n\n &lt;a href=&quot;\nhttp://www.rottentomatoes.com/m/the_calling_2014/&quot; rel=&quot;nofollow&quot; target=&quot;_NEW&quot;&gt;\nhttp://www.rottentomatoes.com/m/the_calling_2014/&lt;/a&gt;\n\n\n\n\n\n- SAMPLE: Yes\n\n\n- SUBTITLE: English\n\n\n- LANGUAGE / AUDIO: English\n\n\n\n\n\nSCREENSHOTS:\n-------------------    &lt;a href=&quot;\nhttp://someimage.com/mw1W&quot; rel=&quot;nofollow&quot; target=&quot;_NEW&quot;&gt;\nhttp://someimage.com/mw1W&lt;/a&gt;\n\n\n\n\nDIRECTOR: Jason Stone\n\n\n\n\nCAST: Susan Sarandon, Topher Grace, Ellen Burstyn, Gil Bellows, Donald Sutherland, Christopher Heyerdahl,...\n\n\nPLOT:\n-----------\nDetective Hazel Micallef hasn't had much to worry about in the sleepy town of Port Dundas until a string of gruesome murders in the surrounding  countryside brings her face to face with a serial killer driven by a higher calling.\n\n\n************************************\n\n- Duration: 1h 48mn\n\n- Bit rate: 1432 Kbps\n\n- Res: 720 x 298\n\n- AR: 2.40:1\n\n- FPS: 23.976 fps\n\n- Audio: MP3, 2 channels, 128Kbps\n\n************************************\n\n\nGeneral\n--------------\nFormat : AVI\nFormat/Info : Audio Video Interleave\nFile size : 1.18 GiB\nDuration : 1h 48mn\nOverall bit rate : 1570 Kbps\nWriting library : VirtualDub build 35491\n\n\nVideo\n-----------\nFormat : MPEG-4 Visual\nFormat profile : Advanced Simple@L5\nFormat settings, BVOP : 2\nFormat settings, QPel : No\nFormat settings, GMC : No warppoints\nFormat settings, Matrix : Default (H.263)\nCodec ID : XVID\nCodec ID/Hint : XviD\nDuration : 1h 48mn\nBit rate : 1432 Kbps\nWidth : 720 pixels\nHeight : 298 pixels\nDisplay aspect ratio : 2.40:1\nFrame rate : 23.976 fps\nColor space : YUV\nChroma subsampling : 4:2:0\nBit depth : 8 bits\nScan type : Progressive\nCompression mode : Lossy\nBits/(Pixel*Frame) : 0.278\nStream size : 1.08 GiB (91%)\nWriting library : XviD 65\n\n\nAudio\n-----------\nFormat : MPEG Audio\nFormat version : Version 1\nFormat profile : Layer 3\nMode : Joint stereo\nMode extension : MS Stereo\nCodec ID : 55\nCodec ID/Hint : MP3\nDuration : 1h 48mn\nBit rate mode : Constant\nBit rate : 128 Kbps\nChannel(s) : 2 channels\nSampling rate : 48.0 KHz\nCompression mode : Lossy\nStream size : 98.9 MiB (8%)\nAlignment : Split accross interleaves\nInterleave, duration : 42 ms (1.00 video frame)\nInterleave, preload duration : 500 ms\nWriting library : LAME3.99r","torrent":{"xt":"urn:btih:d99bb900dd8c6157470abc38e31b491d88c022e5","amp;dn":"The+Calling+2014+HDRip+XviD+titler","amp;tr":["udp%3A%2F%2Ftracker.openbittorrent.com%3A80","udp%3A%2F%2Fopen.demonii.com%3A1337","udp%3A%2F%2Ftracker.coppersurfer.tk%3A6969","udp%3A%2F%2Fexodus.desync.com%3A6969"],"infoHash":"d99bb900dd8c6157470abc38e31b491d88c022e5","infoHashBuffer":{"type":"Buffer","data":[217,155,185,0,221,140,97,87,71,10,188,56,227,27,73,29,136,192,34,229]},"announce":[],"urlList":[]}}